<svg width="382" height="252" viewBox="0 0 382 252" fill="none" xmlns="http://www.w3.org/2000/svg">
<path d="M0 32C0 16.9151 0 9.37258 4.68629 4.68629C9.37258 0 16.9151 0 32 0H92.319C98.0693 0 100.944 0 103.591 0.960915C106.237 1.92183 108.442 3.76671 112.852 7.45648L136.336 27.1032C140.746 30.7929 142.952 32.6378 145.598 33.5987C148.244 34.5597 151.119 34.5597 156.869 34.5597H190.556H227.156C232.353 34.5597 234.952 34.5597 237.379 33.7645C239.806 32.9693 241.901 31.4317 246.091 28.3564L276.272 6.2033C280.462 3.128 282.557 1.59034 284.984 0.795172C287.411 0 290.01 0 295.207 0H350C365.085 0 372.627 0 377.314 4.68629C382 9.37258 382 16.9151 382 32V172C382 209.712 382 228.569 370.284 240.284C358.569 252 339.712 252 302 252H80C42.2876 252 23.4315 252 11.7157 240.284C0 228.569 0 209.712 0 172V32Z" fill="#44F1A6"/>
</svg>
